<mxfile host="app.diagrams.net" modified="2022-08-19T05:18:50.264Z" agent="5.0 (Windows NT 10.0; Win64; x64) AppleWebKit/537.36 (KHTML, like Gecko) Chrome/104.0.0.0 Safari/537.36" etag="O4Hvvk7ZBAvbkgyzzfHr" version="20.2.4" type="github">
  <diagram id="vxEQ55yAV3wUE28LkBF-" name="Page-1">
    <mxGraphModel dx="677" dy="336" grid="1" gridSize="10" guides="1" tooltips="1" connect="1" arrows="1" fold="1" page="1" pageScale="1" pageWidth="827" pageHeight="1169" math="0" shadow="0">
      <root>
        <mxCell id="0" />
        <mxCell id="1" parent="0" />
        <mxCell id="I90uojJ2yvvB7msEJ_s_-4" value="" style="edgeStyle=orthogonalEdgeStyle;rounded=0;orthogonalLoop=1;jettySize=auto;html=1;fontSize=16;" edge="1" parent="1" source="I90uojJ2yvvB7msEJ_s_-1" target="I90uojJ2yvvB7msEJ_s_-2">
          <mxGeometry relative="1" as="geometry" />
        </mxCell>
        <mxCell id="I90uojJ2yvvB7msEJ_s_-1" value="Tweak" style="rounded=0;whiteSpace=wrap;html=1;fontSize=16;" vertex="1" parent="1">
          <mxGeometry x="130" y="190" width="70" height="40" as="geometry" />
        </mxCell>
        <mxCell id="I90uojJ2yvvB7msEJ_s_-11" value="" style="edgeStyle=orthogonalEdgeStyle;rounded=0;orthogonalLoop=1;jettySize=auto;html=1;fontSize=20;" edge="1" parent="1" source="I90uojJ2yvvB7msEJ_s_-2" target="I90uojJ2yvvB7msEJ_s_-9">
          <mxGeometry relative="1" as="geometry" />
        </mxCell>
        <mxCell id="I90uojJ2yvvB7msEJ_s_-2" value="SM4" style="rounded=0;whiteSpace=wrap;html=1;fontSize=16;" vertex="1" parent="1">
          <mxGeometry x="240" y="190" width="70" height="40" as="geometry" />
        </mxCell>
        <mxCell id="I90uojJ2yvvB7msEJ_s_-5" value="" style="edgeStyle=orthogonalEdgeStyle;rounded=0;orthogonalLoop=1;jettySize=auto;html=1;fontSize=16;" edge="1" parent="1" source="I90uojJ2yvvB7msEJ_s_-3" target="I90uojJ2yvvB7msEJ_s_-2">
          <mxGeometry relative="1" as="geometry" />
        </mxCell>
        <mxCell id="I90uojJ2yvvB7msEJ_s_-3" value="Key&lt;sub&gt;2&lt;/sub&gt;" style="rounded=0;whiteSpace=wrap;html=1;fontSize=16;" vertex="1" parent="1">
          <mxGeometry x="240" y="130" width="70" height="40" as="geometry" />
        </mxCell>
        <mxCell id="I90uojJ2yvvB7msEJ_s_-6" value="&lt;p class=&quot;MsoNormal&quot;&gt;&lt;span style=&quot;mso-spacerun:&#39;yes&#39;;font-family:微软雅黑;font-size:12.0000pt;&#xa;mso-font-kerning:1.0000pt;&quot;&gt;&lt;font face=&quot;微软雅黑&quot;&gt;⨁&lt;/font&gt;&lt;/span&gt;&lt;span style=&quot;mso-spacerun:&#39;yes&#39;;font-family:微软雅黑;font-size:12.0000pt;&#xa;mso-font-kerning:1.0000pt;&quot;&gt;&amp;nbsp;&amp;nbsp;&lt;font face=&quot;微软雅黑&quot;&gt;⨂&lt;/font&gt;&lt;/span&gt;&lt;/p&gt;" style="text;whiteSpace=wrap;html=1;fontSize=16;" vertex="1" parent="1">
          <mxGeometry x="230" y="620" width="70" height="80" as="geometry" />
        </mxCell>
        <mxCell id="I90uojJ2yvvB7msEJ_s_-7" value="&lt;span style=&quot;color: rgb(0, 0, 0); font-family: Helvetica; font-size: 20px; font-style: normal; font-variant-ligatures: normal; font-variant-caps: normal; font-weight: 400; letter-spacing: normal; orphans: 2; text-align: left; text-indent: 0px; text-transform: none; widows: 2; word-spacing: 0px; -webkit-text-stroke-width: 0px; background-color: rgb(248, 249, 250); text-decoration-thickness: initial; text-decoration-style: initial; text-decoration-color: initial;&quot;&gt;&lt;font face=&quot;微软雅黑&quot; style=&quot;font-size: 20px;&quot;&gt;⨁&lt;/font&gt;&lt;/span&gt;&lt;span style=&quot;color: rgb(0, 0, 0); font-family: Helvetica; font-size: 20px; font-style: normal; font-variant-ligatures: normal; font-variant-caps: normal; font-weight: 400; letter-spacing: normal; orphans: 2; text-align: left; text-indent: 0px; text-transform: none; widows: 2; word-spacing: 0px; -webkit-text-stroke-width: 0px; background-color: rgb(248, 249, 250); text-decoration-thickness: initial; text-decoration-style: initial; text-decoration-color: initial;&quot;&gt;&amp;nbsp;&lt;/span&gt;" style="text;whiteSpace=wrap;html=1;fontSize=20;" vertex="1" parent="1">
          <mxGeometry x="384" y="350" width="30" height="35" as="geometry" />
        </mxCell>
        <mxCell id="I90uojJ2yvvB7msEJ_s_-9" value="&lt;span style=&quot;color: rgb(0, 0, 0); font-family: 微软雅黑; font-style: normal; font-variant-ligatures: normal; font-variant-caps: normal; font-weight: 400; letter-spacing: normal; orphans: 2; text-align: left; text-indent: 0px; text-transform: none; widows: 2; word-spacing: 0px; -webkit-text-stroke-width: 0px; background-color: rgb(248, 249, 250); text-decoration-thickness: initial; text-decoration-style: initial; text-decoration-color: initial; float: none; display: inline !important;&quot;&gt;&lt;font style=&quot;font-size: 20px;&quot;&gt;⨂&lt;/font&gt;&lt;/span&gt;" style="text;whiteSpace=wrap;html=1;fontSize=20;" vertex="1" parent="1">
          <mxGeometry x="370" y="195" width="20" height="30" as="geometry" />
        </mxCell>
        <mxCell id="I90uojJ2yvvB7msEJ_s_-12" value="&lt;p class=&quot;MsoNormal&quot;&gt;&lt;br&gt;&lt;/p&gt;" style="text;whiteSpace=wrap;html=1;fontSize=20;" vertex="1" parent="1">
          <mxGeometry x="600" y="330" width="30" height="50" as="geometry" />
        </mxCell>
        <mxCell id="I90uojJ2yvvB7msEJ_s_-14" value="" style="edgeStyle=orthogonalEdgeStyle;rounded=0;orthogonalLoop=1;jettySize=auto;html=1;fontSize=14;" edge="1" parent="1" source="I90uojJ2yvvB7msEJ_s_-13" target="I90uojJ2yvvB7msEJ_s_-9">
          <mxGeometry relative="1" as="geometry" />
        </mxCell>
        <mxCell id="I90uojJ2yvvB7msEJ_s_-13" value="&lt;span style=&quot;font-family: Arial; font-size: 20px; text-align: left;&quot;&gt;α&lt;/span&gt;&lt;span style=&quot;font-family: Arial; text-align: left;&quot;&gt;&lt;sup style=&quot;&quot;&gt;&lt;font style=&quot;font-size: 14px;&quot;&gt;0&lt;/font&gt;&lt;/sup&gt;&lt;/span&gt;" style="rounded=0;whiteSpace=wrap;html=1;fontSize=16;" vertex="1" parent="1">
          <mxGeometry x="345" y="130" width="70" height="40" as="geometry" />
        </mxCell>
      </root>
    </mxGraphModel>
  </diagram>
</mxfile>
